<?xml version="1.0" standalone="no"?>
<!DOCTYPE svg PUBLIC "-//W3C//DTD SVG 20010904//EN"
 "http://www.w3.org/TR/2001/REC-SVG-20010904/DTD/svg10.dtd">
<svg version="1.0" xmlns="http://www.w3.org/2000/svg"
 width="581.000000pt" height="581.000000pt" viewBox="0 0 581.000000 581.000000"
 preserveAspectRatio="xMidYMid meet">
<metadata>
Created by potrace 1.11, written by Peter Selinger 2001-2013
</metadata>
<g transform="translate(0.000000,581.000000) scale(0.100000,-0.100000)"
fill="#000000" stroke="none">
<path d="M5669 5796 c-2 -2 -24 -6 -49 -9 -25 -4 -55 -8 -66 -11 -12 -2 -39
-7 -60 -10 -22 -4 -64 -11 -94 -16 -30 -5 -68 -12 -85 -14 -63 -10 -102 -17
-155 -26 -30 -5 -68 -12 -85 -14 -327 -53 -315 -46 -312 -191 2 -76 -1 -98
-13 -109 -8 -7 -150 -65 -315 -130 -165 -65 -309 -122 -320 -127 -11 -5 -220
-87 -465 -184 -245 -96 -461 -183 -480 -194 -28 -15 -36 -26 -38 -54 -3 -31 4
-42 57 -98 l61 -63 -33 -12 c-17 -7 -103 -40 -190 -74 l-159 -61 -84 81 c-55
52 -91 80 -106 80 -20 0 -175 -56 -263 -94 -16 -7 -113 -46 -215 -86 -102 -39
-194 -76 -205 -81 -11 -5 -94 -38 -184 -73 l-165 -64 -183 -464 c-101 -254
-188 -471 -193 -480 -6 -10 -10 -23 -10 -29 0 -6 431 -443 958 -970 l958 -958
260 103 c142 57 363 144 489 194 l230 91 78 193 c43 106 80 200 84 208 3 8 58
148 121 310 64 162 116 308 115 324 -1 22 -20 48 -80 108 l-80 80 73 185 c41
103 75 187 77 189 2 2 32 -24 67 -57 56 -55 66 -60 94 -55 17 4 36 12 42 19 6
6 57 127 112 267 326 825 434 1098 447 1127 8 17 15 35 15 40 0 12 61 156 72
170 6 8 42 11 108 10 134 -2 140 4 165 155 8 51 17 102 19 113 2 11 7 40 11
65 4 25 9 54 11 65 2 11 10 63 19 115 16 95 20 121 30 183 3 17 12 69 21 115
24 135 23 180 -5 203 -20 17 -89 27 -102 15z m51 -148 c-7 -40 -14 -82 -16
-93 -11 -58 -24 -135 -30 -170 -3 -22 -12 -78 -20 -125 -15 -86 -21 -122 -29
-173 -2 -16 -6 -40 -10 -55 -3 -15 -7 -40 -10 -57 -9 -71 -17 -111 -25 -125
-7 -12 -30 -15 -109 -15 -82 -1 -103 -4 -120 -19 -18 -17 -79 -163 -298 -721
-41 -104 -79 -199 -84 -210 -4 -11 -56 -141 -115 -290 -107 -272 -119 -303
-145 -363 l-14 -32 -750 750 c-412 412 -747 751 -745 753 3 2 100 41 215 87
491 193 561 221 580 229 11 5 72 30 135 54 482 189 658 261 678 280 20 19 22
30 22 124 0 119 -3 115 105 128 32 3 62 8 65 10 3 1 25 6 50 9 25 3 56 8 70
11 14 2 36 7 50 10 14 2 43 7 65 10 23 3 52 8 65 10 39 8 70 13 145 25 108 17
151 24 230 39 22 4 44 4 49 0 4 -4 3 -40 -4 -81z m-1803 -1767 c407 -408 572
-579 568 -590 -47 -127 -141 -361 -145 -361 -3 0 -324 319 -713 708 l-708 708
188 75 188 75 24 -21 c13 -11 282 -278 598 -594z m-351 -280 c489 -488 897
-897 906 -908 17 -18 15 -25 -37 -159 -31 -76 -59 -148 -64 -159 -5 -11 -60
-148 -121 -305 -61 -157 -117 -295 -123 -308 -10 -22 -31 -3 -401 368 -253
252 -387 393 -379 398 19 12 81 120 103 180 31 82 42 205 26 297 -24 147 -122
298 -247 383 -44 30 -159 85 -159 77 0 -3 -12 0 -27 6 -44 17 -205 19 -273 3
-71 -16 -169 -63 -221 -104 l-36 -28 -388 388 c-214 214 -387 391 -385 394 3
2 133 55 290 117 157 61 359 142 450 179 91 37 172 68 181 69 10 0 402 -384
905 -888z m-502 -207 c371 -125 473 -601 185 -868 -126 -117 -311 -165 -473
-121 -123 33 -218 97 -292 197 -71 97 -99 189 -97 323 3 181 114 355 280 439
79 41 143 55 243 54 61 0 105 -7 154 -24z"/>
<path d="M1390 2894 c-12 -27 -30 -71 -40 -99 -10 -27 -35 -94 -55 -147 l-37
-98 646 -646 c355 -355 649 -644 653 -642 33 16 79 34 218 88 88 34 161 63
162 64 1 1 -342 346 -762 766 l-764 764 -21 -50z"/>
<path d="M1037 2623 c-16 -37 -153 -383 -451 -1138 -80 -203 -154 -386 -163
-405 l-18 -35 -104 -2 c-89 -2 -107 -5 -124 -22 -16 -15 -28 -63 -53 -209 -18
-104 -35 -209 -39 -233 -3 -24 -8 -51 -10 -59 -2 -8 -7 -33 -10 -55 -3 -23 -7
-50 -9 -62 -3 -11 -7 -38 -10 -59 -4 -22 -13 -75 -21 -119 -23 -129 -23 -140
-10 -173 18 -42 56 -48 175 -27 52 9 107 18 123 21 15 2 41 6 57 9 17 3 45 7
63 10 17 3 43 7 57 10 14 3 41 7 60 10 19 3 60 10 90 15 30 5 69 12 85 14 285
46 289 47 304 85 7 16 11 65 9 119 l-3 92 30 14 c16 8 82 34 145 59 259 101
756 298 775 307 11 5 152 61 314 125 162 63 309 123 328 131 l33 17 -798 798
c-440 440 -801 799 -804 799 -3 0 -12 -17 -21 -37z"/>
</g>
</svg>
