<?xml version="1.0" standalone="no"?>
<!DOCTYPE svg PUBLIC "-//W3C//DTD SVG 20010904//EN"
 "http://www.w3.org/TR/2001/REC-SVG-20010904/DTD/svg10.dtd">
<svg version="1.0" xmlns="http://www.w3.org/2000/svg"
 width="696.000000pt" height="696.000000pt" viewBox="0 0 696.000000 696.000000"
 preserveAspectRatio="xMidYMid meet">
<metadata>
Created by potrace 1.11, written by Peter Selinger 2001-2013
</metadata>
<g transform="translate(0.000000,696.000000) scale(0.100000,-0.100000)"
fill="#000000" stroke="none">
<path d="M6315 6869 c-286 -49 -530 -91 -542 -94 -45 -11 -58 -49 -63 -184
l-5 -125 -955 -378 c-721 -285 -961 -384 -977 -404 -41 -46 -32 -77 48 -160
70 -72 71 -74 48 -83 -334 -130 -415 -161 -424 -161 -6 0 -46 36 -90 81 -86
87 -125 113 -159 107 -12 -2 -292 -111 -622 -242 l-601 -238 -228 -574 c-124
-315 -229 -581 -231 -591 -3 -13 299 -321 1148 -1170 l1153 -1151 575 228
c316 125 583 234 592 242 23 19 488 1197 488 1238 0 28 -14 47 -96 130 l-96
98 88 226 88 226 72 -70 c65 -63 76 -70 112 -70 31 0 45 6 59 23 10 13 189
454 397 980 l379 957 123 0 c121 0 124 1 154 28 l31 27 89 535 c49 294 90 549
90 565 -1 49 -51 96 -102 94 -13 -1 -257 -41 -543 -90z m555 -21 c0 -39 -170
-1032 -178 -1039 -4 -4 -62 -9 -129 -11 -115 -3 -124 -4 -147 -28 -16 -17
-148 -339 -396 -965 -205 -517 -375 -946 -379 -952 -4 -8 -335 316 -901 882
-492 492 -892 896 -889 899 3 3 432 174 954 381 523 207 959 385 970 396 17
17 21 37 25 151 l5 132 510 87 c281 47 520 87 533 88 17 1 22 -4 22 -21z
m-2573 -2550 c596 -596 1083 -1089 1083 -1096 0 -12 -428 -1102 -437 -1112 -2
-2 -212 204 -467 459 l-464 464 35 45 c166 217 183 540 41 780 -18 31 -69 93
-113 138 -64 64 -98 89 -172 126 -126 63 -216 82 -357 75 -153 -7 -270 -48
-381 -132 l-48 -37 -463 463 c-255 255 -461 465 -458 468 7 7 1097 440 1109
440 5 1 497 -486 1092 -1081z m379 371 l711 -711 -85 -216 c-46 -120 -87 -220
-91 -224 -3 -4 -388 374 -855 841 l-847 848 218 85 c120 48 222 87 228 87 5 1
330 -319 721 -710z m-1121 -579 c329 -47 563 -326 542 -647 -19 -278 -221
-511 -492 -568 -243 -51 -495 52 -633 259 -167 249 -135 565 77 777 102 102
211 158 346 178 82 12 81 12 160 1z"/>
<path d="M1597 3292 c-48 -125 -87 -232 -87 -237 0 -6 348 -358 773 -783 l772
-772 235 92 c129 50 237 93 240 95 6 6 -1823 1833 -1835 1833 -5 0 -49 -103
-98 -228z"/>
<path d="M1255 3164 c-9 -16 -184 -452 -389 -969 l-372 -940 -125 -5 c-131 -5
-171 -18 -183 -57 -3 -10 -46 -263 -96 -562 -101 -603 -100 -587 -32 -619 34
-17 48 -15 586 76 l551 92 28 30 c26 30 27 33 27 155 0 69 2 125 4 125 12 0
1921 761 1930 770 7 7 -275 296 -951 972 l-962 962 -16 -30z"/>
</g>
</svg>
